<svg width="314" height="174" viewBox="0 0 314 174" fill="none" xmlns="http://www.w3.org/2000/svg">
<path d="M149.346 0.930536L147.926 1.83658V12.2439L148.513 12.6112C148.93 12.8806 149.542 12.9785 150.546 12.9295L151.966 12.8561L152.382 8.8156C152.603 6.58721 152.799 4.08946 152.799 3.28136C152.823 1.8121 152.799 1.73863 151.844 0.881561C151.305 0.391805 150.84 0 150.791 0C150.766 0 150.105 0.416293 149.346 0.930536Z" fill="#C9673C"/>
<path d="M155.076 12.1949C154.782 13.3704 154.463 14.9866 154.39 15.7947C154.243 17.166 154.292 17.3374 154.904 18.072C155.59 18.9046 156.692 19.5903 157.304 19.5903C157.598 19.5903 160.928 14.2029 160.904 13.7377C160.879 13.5418 156.055 10.04 155.786 10.04C155.688 10.04 155.345 10.995 155.076 12.1949Z" fill="#C9673C"/>
<path d="M133.11 12.1459C131.151 12.5621 127.576 14.1783 125.372 15.6966C123.682 16.823 119.372 20.5207 118.05 21.941L117.193 22.847L118.05 22.3573C118.515 22.0634 122.556 19.7371 126.988 17.1414C131.445 14.5457 135.289 12.2683 135.559 12.0724C136.024 11.7785 136.024 11.7541 135.436 11.7785C135.094 11.7785 134.065 11.95 133.11 12.1459Z" fill="#C9673C"/>
<path d="M177.678 11.9255C177.874 12.1214 192.664 20.7901 195.432 22.3328C197.244 23.3368 190.607 17.3863 187.84 15.5007C186.102 14.3253 182.894 12.807 181.327 12.3908C179.319 11.901 177.384 11.6316 177.678 11.9255Z" fill="#C9673C"/>
<path d="M134.751 14.5705C130.857 16.652 122.654 22.4311 112.663 30.1448C109.504 32.569 103.284 37.0013 98.8272 39.9644C72.6253 57.4976 68.2909 61.6361 59.0346 78.1163C54.5778 86.0504 48.4558 97.78 47.3784 100.449C44.2684 108.138 42.1625 118.546 40.9871 131.989C40.6442 136.079 40.5463 139.409 40.5708 149.988C40.5953 157.114 40.6932 163.456 40.8156 164.044C41.036 165.097 41.1095 164.926 43.191 157.555C45.5663 149.131 46.1785 146.388 47.2559 139.091C47.6477 136.324 48.211 133.067 48.5048 131.867C50.0231 125.28 54.2105 112.179 57.198 104.637C60.0875 97.3882 63.5648 91.0459 69.5153 82.2793C73.6538 76.1818 75.4169 73.831 78.2575 70.6476C82.9836 65.3827 92.9991 55.7345 96.6233 52.9919C97.162 52.5756 101.251 49.784 105.684 46.772C110.141 43.7845 114.867 40.4786 116.214 39.4501C119.397 37.0258 122.776 33.622 126.866 28.7734C131.127 23.7045 133.184 21.574 135.167 20.0558C137.346 18.4151 140.383 16.8479 143.885 15.5745C144.277 15.4276 144.105 15.2807 142.905 14.7909C138.914 13.1502 137.469 13.1257 134.751 14.5705Z" fill="#C9673C"/>
<path d="M173.026 13.9337C172.217 14.1786 171.018 14.5949 170.332 14.8887C169.303 15.305 169.181 15.403 169.597 15.5744C172.928 16.8233 174.813 17.7538 177.14 19.272C179.637 20.9372 181.18 22.4555 185.833 27.9162C193.424 36.8053 195.358 38.446 209.121 47.7269C213.357 50.5919 217.495 53.4815 218.303 54.1671C223.299 58.2811 234.025 69.0557 237.918 73.8063C239.681 75.9857 244.995 83.6749 247.64 87.9113C252.978 96.433 255.672 102.237 259.443 113.379C263.19 124.325 265.1 131.622 266.202 138.968C267.328 146.633 267.965 149.498 270.316 157.701C272.324 164.803 272.446 165.121 272.617 164.068C272.715 163.456 272.862 158.779 272.96 153.661C273.401 129.002 270.609 109.828 264.879 97.8289C261.941 91.6824 253.958 77.0142 250.554 71.5535C243.771 60.6564 237.869 55.465 214.532 39.9153C210.418 37.1726 204.321 32.8138 200.942 30.2426C190.412 22.1371 181.474 15.8927 178.168 14.301C176.233 13.346 175.229 13.2725 173.026 13.9337Z" fill="#C9673C"/>
<path d="M105.415 14.203C82.8376 15.7457 60.4067 27.2305 39.935 47.7512C37.4372 50.249 33.911 54.0446 32.0989 56.175C28.9644 59.8237 23.0384 67.4884 23.0384 67.8557C23.0384 67.9537 23.8955 67.7333 24.9484 67.3415C25.9769 66.9742 30.5806 65.4804 35.1598 64.0356C57.1744 57.1301 58.1294 56.7872 60.7006 54.6078C62.1699 53.3834 65.892 49.3185 65.892 48.9267C65.892 48.5593 63.1249 48.4614 60.6026 48.7063C55.6316 49.245 45.763 51.4979 38.9065 53.7018C36.6046 54.4364 36.6781 54.0936 39.0534 53.0161C42.3837 51.4734 47.7466 49.9796 62.1699 46.5269C70.3733 44.5433 72.5527 43.9556 73.6791 43.319C75.3688 42.3639 79.3603 39.7192 82.6172 37.3929C85.6536 35.238 85.5802 35.14 80.2174 35.1645C74.2913 35.189 67.5327 36.242 58.6681 38.5683C52.5951 40.16 53.1584 40.0621 54.0154 39.3274C57.3703 36.4379 70.6671 34.234 86.4617 33.9646C91.2614 33.8667 91.7021 33.7687 94.5427 31.8342C96.0365 30.8057 99.7831 27.4509 99.6117 27.255C99.5627 27.206 97.6527 27.4509 95.3753 27.7692C84.968 29.2875 75.2708 30.2915 73.8995 29.9731C73.3118 29.8507 73.2383 29.7772 73.5077 29.5078C74.6831 28.3814 81.4418 27.157 94.4693 25.7122C99.4648 25.1735 104.093 24.5613 104.754 24.3654C106.713 23.7777 110.435 21.1575 115.823 16.5538L118.124 14.5703L117.341 14.4234C115.921 14.1295 108.476 14.0071 105.415 14.203Z" fill="#C9673C"/>
<path d="M198.419 14.1785C196.901 14.3009 195.603 14.4233 195.53 14.4968C195.26 14.7907 202.215 20.4718 205.447 22.6268C206.598 23.3859 208.092 24.1695 208.753 24.3654C209.439 24.5613 214.018 25.1735 218.94 25.7122C231.698 27.108 236.988 28.0141 239.387 29.214C240.342 29.7037 240.367 29.7037 239.755 29.9241C238.653 30.3404 228.466 29.3119 217.373 27.6712C215.512 27.4019 213.92 27.206 213.871 27.2549C213.7 27.4508 217.422 30.8057 218.94 31.8342C221.781 33.7687 222.221 33.8666 227.021 33.9646C242.791 34.234 256.112 36.4379 259.467 39.3274C260.324 40.0621 260.888 40.16 254.815 38.5683C245.901 36.242 239.142 35.189 233.265 35.1645C228 35.14 227.854 35.2625 230.474 37.148C234.833 40.2335 235.935 40.9926 238.408 42.4863C240.955 44.0291 241.004 44.0536 246.783 45.4249C266.03 50.0531 271.956 51.6938 275.188 53.3589C276.584 54.0446 276.731 54.4364 275.458 53.9711C270.193 52.11 257.827 49.245 252.88 48.7062C250.456 48.4614 247.591 48.5593 247.591 48.9021C247.591 49.245 250.529 52.5998 252.096 54.0201C255.035 56.7137 255.5 56.8852 275.923 63.2765C281.727 65.1131 287.383 66.9252 288.461 67.3414C289.563 67.7333 290.444 68.0026 290.444 67.9292C290.444 67.6598 286.82 62.7867 284.494 59.9216C270.536 42.6822 253.639 29.0915 236.816 21.5738C224.254 15.9661 210.712 13.3704 198.419 14.1785Z" fill="#C9673C"/>
<path d="M143.15 16.9948C141.632 17.7049 138.62 19.9578 136.122 22.2841C134.702 23.582 133.527 25.0512 131.543 28.0143C129.315 31.3201 128.433 32.4221 126.45 34.2342C121.846 38.495 112.933 45.3516 103.333 52.0123C95.9625 57.1302 94.3708 58.4281 89.7426 63.0318C85.1144 67.66 82.3473 70.9414 76.5682 78.6795C66.0874 92.711 61.9 99.4207 58.1044 108.383C54.97 115.681 53.2313 121.974 50.4397 135.663C48.3583 145.972 47.0604 151.041 44.7096 158.069C43.7301 161.032 42.824 163.677 42.7261 163.946C42.6281 164.215 43.5587 163.236 44.832 161.742C49.7541 156.061 59.2553 145.874 70.2993 134.487C77.7681 126.773 80.0699 124.276 81.6372 122.121C82.2738 121.239 84.1349 119.256 85.8001 117.738C92.5342 111.518 94.7871 109.093 97.3583 105.175C99.6112 101.723 101.889 98.5636 109.284 88.5236C117.389 77.5041 119.373 74.0513 130.294 51.6695C137.714 36.4626 138.449 35.0912 142.514 28.9938C146.677 22.7739 147.705 20.521 147.313 18.464C146.946 16.4805 145.403 15.9173 143.15 16.9948Z" fill="#C9673C"/>
<path d="M167.099 16.7741C166.389 17.2884 165.973 18.6597 166.144 19.9086C166.438 21.8186 167.417 23.6797 170.87 28.9446C175.303 35.6542 175.792 36.5603 182.624 50.5673C194.648 75.2265 195.774 77.161 207.088 92.4659C210.173 96.6288 213.993 102.016 215.609 104.44C218.132 108.26 218.94 109.264 221.731 112.032C223.494 113.795 226.164 116.366 227.682 117.737C229.274 119.207 231.184 121.264 232.212 122.635C233.192 123.933 236.351 127.434 239.24 130.397C251.19 142.69 264.34 156.697 268.625 161.791C269.776 163.138 270.756 164.24 270.805 164.215C270.829 164.166 270.413 162.942 269.874 161.472C267.328 154.64 265.246 146.804 262.797 134.658C260.74 124.569 259.81 120.798 257.851 115.019C255.476 107.893 252.268 101.135 248.105 94.5229C244.848 89.3314 235.714 76.8427 230.474 70.4024C227.29 66.4843 220.85 59.9706 217.715 57.4973C216.442 56.4688 213.185 54.118 210.491 52.2814C204.884 48.4124 194.476 40.6497 190.999 37.7357C186.175 33.6952 184.755 32.2014 182.135 28.3079C179.465 24.2919 177.066 21.7207 173.539 19.0515C170.307 16.6272 168.324 15.9171 167.099 16.7741Z" fill="#C9673C"/>
<path d="M149.591 20.5696C146.701 27.0589 143.494 33.4502 140.163 39.4007C134.8 48.9265 133.968 50.5427 129.315 60.3133C122.507 74.6631 121.871 75.7896 114.01 87.6906C99.9297 108.995 92.363 118.055 72.5769 137.205C58.3495 150.967 48.1381 161.35 46.3749 163.823C44.4159 166.566 41.1346 171.659 41.306 171.659C41.3794 171.659 42.163 171.145 43.0446 170.508C44.8322 169.235 44.7832 169.21 43.8282 171.757C43.5833 172.443 43.3874 173.006 43.4364 173.031C43.4609 173.055 48.0156 170.998 53.5254 168.427C67.1161 162.134 72.0137 159.93 79.36 156.771C82.8128 155.301 87.294 153.244 89.3265 152.216C93.9302 149.914 102.06 145.286 105.782 142.837C111.121 139.335 122.556 130.422 124.344 128.365C128.287 123.835 136.221 112.423 138.351 108.26C139.135 106.693 140.482 103.706 141.314 101.624C143.298 96.7021 146.848 86.0255 147.436 83.1604C149.003 75.6916 150.864 59.1134 150.864 52.5262C150.864 50.7631 150.987 48.5592 151.109 47.6286C151.477 45.0819 152.676 40.3802 153.803 36.952L154.831 33.9155L154.635 30.5117C154.489 27.4997 154.44 27.1568 154.121 27.5731C152.921 29.2138 150.13 41.2128 147.926 54.3628C146.163 64.7701 142.147 82.2544 139.967 89.0375C137.47 96.7266 128.678 110.832 120.426 120.357C119.153 121.827 115.7 125.328 112.737 128.095C103.138 137.18 102.574 137.597 87.1961 146.976C78.7723 152.094 73.3605 155.081 60.7493 161.57C54.5294 164.754 45.5669 169.039 45.4199 168.892C45.2485 168.721 54.7253 162.28 57.321 160.836C58.8637 159.954 64.7898 156.746 70.4954 153.685C83.0332 146.976 84.6004 146.045 89.8408 142.323C98.0197 136.495 113.814 124.618 115.7 122.88C120.108 118.815 124.075 112.35 132.254 96.0165C136.784 86.9315 137.935 84.3113 139.747 78.973C142.318 71.4797 143.714 64.7456 145.232 52.7711C145.771 48.5836 146.383 44.2983 146.603 43.2208C147.485 38.9355 149.297 33.4502 150.962 30.1688L151.55 29.0179L150.84 24.7325C150.448 22.3817 150.105 20.2758 150.056 20.0799C150.007 19.8595 149.811 20.0554 149.591 20.5696Z" fill="#C9673C"/>
<path d="M162.692 24.3899L161.957 28.9447L163.035 31.32C164.406 34.3809 166.12 39.6213 166.757 42.7558C167.051 44.1026 167.541 47.4819 167.884 50.2245C169.867 66.1416 171.63 74.0756 175.377 83.6259C176.626 86.8093 185.196 104.049 188.184 109.412C192.322 116.807 195.971 121.753 199.032 124.08C202.583 126.822 219.553 139.409 222.834 141.76C228.858 146.094 230.303 146.927 245.632 155.13C256.848 161.13 258.66 162.183 263.557 165.611C266.08 167.399 268.088 168.868 268.063 168.917C267.916 169.039 258.415 164.509 252.587 161.497C238.825 154.445 233.976 151.726 222.271 144.527C211.129 137.695 209.66 136.568 200.722 128.12C193.228 120.994 189.727 116.88 184.094 108.603C178.462 100.302 174.789 93.323 173.148 87.9112C170.7 79.7813 167.271 64.5989 165.459 53.8732C163.255 40.9192 160.341 28.4794 159.239 27.3774C159.092 27.2305 158.945 28.308 158.823 30.5119L158.627 33.8667L159.876 37.8092C162.055 44.6658 162.619 47.7023 162.619 52.7713C162.619 59.0157 164.259 74.0022 165.827 82.2791C166.341 84.9727 169.818 95.7228 171.777 100.767C173.932 106.253 176.577 111.199 180.029 116.195C187.768 127.361 189.065 128.855 196.338 134.487C203.587 140.119 206.378 142.103 210.737 144.772C218.794 149.645 224.916 152.804 233.976 156.722C241.322 159.881 247.983 162.893 259.223 168.109C263.802 170.215 268.112 172.223 268.822 172.517L270.071 173.08L269.483 171.341C269.165 170.386 268.896 169.578 268.896 169.505C268.896 169.456 269.606 169.921 270.463 170.533C271.344 171.145 272.104 171.659 272.177 171.659C272.397 171.659 268.675 166.052 266.569 163.211C264.953 161.032 262.064 158.044 251.607 147.784C227.389 123.982 224.156 120.651 218.059 113.354C211.398 105.347 201.775 91.7068 193.963 79.2181C191.122 74.6878 189.286 71.1616 183.923 59.8727C179.246 50.0286 178.83 49.2695 173.32 39.4254C171.165 35.5808 168.079 29.6303 166.488 26.202C164.872 22.7737 163.549 19.9332 163.5 19.9087C163.451 19.8597 163.084 21.8677 162.692 24.3899Z" fill="#C9673C"/>
<path d="M85.9715 43.417C77.5477 47.6289 73.948 49.9063 69.6871 53.7264C65.965 57.0567 56.4148 67.6354 52.9375 72.2391C48.5052 78.1407 44.7341 89.454 41.6731 106.032C40.816 110.636 40.7181 111.836 41.4282 109.338C43.6566 101.429 47.844 91.3151 52.5457 82.524C54.7251 78.4345 56.1209 76.1817 58.888 72.2636C65.4752 62.9583 76.3723 52.2081 88.2244 43.3191C91.3833 40.9682 91.7751 40.6499 91.6037 40.6499C91.5302 40.6499 89.008 41.8988 85.9715 43.417Z" fill="#C9673C"/>
<path d="M221.878 40.7724C221.878 40.8213 222.613 41.3845 223.544 42.0212C231.037 47.3841 241.787 57.0078 247.566 63.546C254.178 71.0148 258.071 76.8184 262.749 86.1727C266.863 94.3516 269.972 102.065 271.662 108.163C272.078 109.705 272.47 110.856 272.519 110.734C272.642 110.342 271.417 103.681 270.242 98.3186C267.769 87.2257 264.83 78.8019 261.671 73.9288C258.928 69.6924 248.399 57.8648 243.305 53.3346C240.416 50.7389 236.694 48.2166 232.237 45.8168C229.029 44.1027 221.878 40.6009 221.878 40.7724Z" fill="#C9673C"/>
<path d="M49.1173 61.3177C39.3467 63.546 30.8739 66.4111 24.703 69.57C21.5441 71.2107 20.638 71.8964 19.0463 73.8799C10.1573 85.0218 4.01084 99.0778 1.36616 114.236C0.33767 120.113 -0.299012 130.422 0.141768 133.826L0.337671 135.295L0.876402 133.704C2.93338 127.655 9.52059 119.501 15.5691 115.46C18.1893 113.722 23.4541 110.905 28.4496 108.604C33.0289 106.473 35.5021 104.808 36.5551 103.094C36.9224 102.482 37.6326 100.621 38.0978 98.9309C39.3957 94.4251 43.1668 79.5611 43.0444 79.4386C42.9954 79.3896 42.4077 80.2467 41.771 81.3487C40.5221 83.5281 31.5351 98.0004 30.9229 98.8085C30.5066 99.3717 30.5311 99.2737 31.8045 96.2372C32.3432 94.9639 33.1758 92.76 33.69 91.3397C34.2043 89.9194 34.6695 88.6215 34.7185 88.4746C34.792 88.3032 32.7105 90.2867 30.0903 92.8824C24.654 98.3187 12.9734 109.265 12.802 109.093C12.7285 109.02 13.0223 108.261 13.4631 107.404C14.9569 104.465 19.6096 98.735 26.4172 91.4621C28.3027 89.4296 29.821 87.7645 29.772 87.7155C29.7475 87.691 28.3517 88.2297 26.6865 88.9154C22.6705 90.5806 21.1033 91.1438 21.6665 90.7765C21.9114 90.6295 23.2337 89.7725 24.6051 88.9154C30.0658 85.4381 46.3012 73.7085 45.6156 73.7085C45.4687 73.7085 41.4527 74.5411 36.702 75.5696C31.9514 76.5736 27.3722 77.5531 26.5151 77.7245C25.1438 78.0183 25.0214 78.0183 25.2907 77.6755C25.9764 76.8674 27.9844 76.1328 41.8934 71.6515C49.2153 69.2762 50.807 68.3701 52.7415 65.4316C53.77 63.8644 54.872 61.3666 54.872 60.6075C54.872 60.0688 54.3087 60.1422 49.1173 61.3177ZM17.9199 92.711C17.2098 93.0538 16.4996 93.2742 16.3527 93.2252C16.1078 93.1518 18.5566 92.0988 18.9974 92.0988C19.1443 92.1233 18.6545 92.3927 17.9199 92.711ZM28.817 102.531C28.6211 102.922 28.2782 103.437 28.0578 103.706C27.666 104.171 27.6415 104.171 27.9844 103.584C28.1803 103.241 28.4741 102.727 28.6455 102.408C28.7925 102.114 28.9884 101.869 29.0618 101.869C29.1108 101.869 29.0129 102.163 28.817 102.531Z" fill="#C9673C"/>
<path d="M258.61 60.5585C258.61 61.1952 259.541 63.644 260.227 64.7949C261.255 66.558 263.288 68.4436 265.026 69.2762C266.667 70.0353 270.218 71.2597 277.956 73.7085C283.98 75.6185 286.967 76.7694 287.898 77.5041L288.608 78.0673L287.016 77.749C286.135 77.5531 281.531 76.5735 276.78 75.5695C272.03 74.5411 268.038 73.7085 267.891 73.7085C267.132 73.7085 283.759 85.7565 289.294 89.1848C290.591 90.0173 291.62 90.7275 291.595 90.7765C291.546 90.8254 289.759 90.1398 287.628 89.2582C285.498 88.3767 283.735 87.691 283.686 87.7155C283.661 87.7645 285.008 89.2827 286.722 91.0948C293.652 98.5146 298.746 104.783 300.117 107.575C300.485 108.359 300.754 109.044 300.68 109.093C300.509 109.265 289.073 98.5636 283.539 93.0538C280.87 90.3847 278.69 88.2787 278.69 88.3277C278.69 88.5726 281.996 97.2412 282.413 98.0248C282.682 98.5636 282.853 99.0289 282.804 99.0778C282.706 99.1513 275.36 87.4951 272.299 82.4016C271.344 80.7854 270.463 79.3896 270.389 79.2672C270.169 79.0468 274.381 95.6251 275.483 99.3717C275.948 100.89 276.609 102.604 277.001 103.216C278.029 104.832 280.503 106.498 285.033 108.604C289.661 110.759 295.195 113.697 297.546 115.215C299.774 116.66 303.007 119.55 305.382 122.243C308.884 126.186 311.014 129.492 312.386 133.189L313.169 135.271L313.341 133.557C313.585 131.279 313.316 123.566 312.851 119.623C310.965 103.682 305.676 89.6255 296.885 77.2102C293.089 71.8474 292.183 71.0883 286.037 68.2967C280.062 65.5785 272.936 63.3012 264.243 61.3177C259.002 60.1422 258.61 60.0933 258.61 60.5585ZM296.42 92.8334C296.983 93.0783 297.252 93.2987 297.056 93.2987C296.86 93.2987 296.15 93.0293 295.465 92.6865C294.093 92.0009 294.852 92.1233 296.42 92.8334ZM285.571 103.706L285.816 104.196L285.425 103.706C285.204 103.437 284.91 102.996 284.788 102.727L284.543 102.237L284.935 102.727C285.155 102.996 285.449 103.437 285.571 103.706Z" fill="#C9673C"/>
<path d="M144.252 102.432C135.828 117.541 129.853 126.871 126.499 130.153C123.732 132.871 115.234 139.58 109.235 143.768C105.464 146.412 95.6685 152.069 91.4811 154.028C88.9834 155.204 84.1593 157.114 73.605 161.154C70.3726 162.379 66.8464 163.823 65.7689 164.362C63.663 165.39 61.4101 166.762 61.557 166.909C61.606 166.958 62.9528 166.737 64.569 166.419C77.9883 163.676 89.3262 160.199 96.5256 156.575C102.941 153.391 111.953 147.759 116.997 143.817C123.07 139.091 126.768 135.368 130.123 130.642C135.437 123.198 142.734 109.24 145.966 100.375C146.358 99.2735 146.677 98.3429 146.628 98.294C146.603 98.2695 145.526 100.131 144.252 102.432Z" fill="#C9673C"/>
<path d="M167.418 100.155C169.328 105.518 173.98 115.289 177.678 121.704C180.372 126.406 183.776 131.475 186.175 134.316C191.979 141.221 203.243 149.474 215.561 155.84C221.144 158.73 226.433 160.738 234.441 162.966C239.926 164.485 251.68 167.154 251.925 166.933C252.072 166.762 250.211 165.635 247.934 164.485C246.734 163.897 243.232 162.428 240.122 161.252C223.348 154.861 220.556 153.612 212.696 149.008C207.235 145.825 204.982 144.356 201.309 141.686C193.693 136.128 187.032 130.618 185.245 128.365C182.306 124.692 176.135 114.75 170.209 104.196C168.544 101.233 167.099 98.6859 166.977 98.5634C166.854 98.4165 167.05 99.1511 167.418 100.155Z" fill="#C9673C"/>
<path d="M271.638 165.954C271.907 166.615 272.373 167.448 272.667 167.864C273.083 168.452 273.181 168.501 273.254 168.158C273.328 167.839 271.467 164.803 271.197 164.803C271.148 164.803 271.344 165.317 271.638 165.954Z" fill="#C9673C"/>
<path d="M41.061 166.321C40.2284 167.546 39.8611 168.696 40.4243 168.354C40.7426 168.158 42.2119 165.293 42.065 165.146C42.016 165.072 41.5507 165.611 41.061 166.321Z" fill="#C9673C"/>
</svg>
